<svg version="1.0" xmlns="http://www.w3.org/2000/svg" width="512.000000pt" height="512.000000pt" viewBox="0 0 512.000000 512.000000" preserveAspectRatio="xMidYMid meet">
							<g transform="translate(0.000000,512.000000) scale(0.050000,-0.050000)" fill="currentColor" stroke="none">
								<path d="M4589 9210 c-356 -47 -652 -124 -989 -257 -673 -266 -1254 -697 -1712 -1272 -105 -131 -274 -381 -353 -521 -270 -478 -437 -987 -511 -1550 -22 -166 -30 -644 -15 -822 46 -531 174 -996 401 -1465 185 -381 390 -684 678 -1000 265 -290 639 -587 992 -788 468 -266 987 -437 1550 -511 166 -22 644 -30 822 -15 531 46 996 174 1465 401 381 185 684 390 1000 678 290 265 587 639 788 992 273 480 446 1014 517 1595 21 174 18 753 -5 930 -38 288 -95 545 -177 798 -38 116 -43 126 -59 115 -9 -7 -245 -197 -524 -421 -315 -253 -507 -414 -507 -425 0 -9 10 -80 22 -157 31 -203 31 -586 0 -795 -118 -773 -509 -1435 -1122 -1899 -389 -294 -826 -475 -1330 -552 -209 -32 -590 -32 -800 -1 -773 118 -1435 509 -1899 1122 -294 389 -475 826 -552 1330 -32 209 -32 590 -1 800 142 932 686 1706 1512 2148 257 137 612 255 883 294 l87 12 0 628 c0 496 -3 628 -12 627 -7 0 -74 -9 -149 -19z"></path>
								<path d="M5910 7720 c0 -792 -2 -1440 -4 -1440 -2 0 -38 21 -80 46 -217 130 -536 207 -786 190 -339 -24 -642 -156 -881 -383 -249 -238 -393 -535 -430 -888 -62 -594 298 -1187 857 -1416 513 -210 1096 -101 1495 278 246 234 392 533 429 875 6 62 10 564 10 1378 0 704 2 1280 5 1280 15 0 211 -127 310 -200 237 -178 429 -368 597 -593 l81 -107 22 32 c108 162 665 1059 665 1071 0 20 -265 288 -395 399 -514 440 -1123 746 -1774 893 -60 14 -112 25 -115 25 -3 0 -6 -648 -6 -1440z"></path>
							</g>
						</svg>