<svg version="1.1" id="Layer_1" xmlns="http://www.w3.org/2000/svg" xmlns:xlink="http://www.w3.org/1999/xlink" x="0px" y="0px"
	 width="864px" height="864px" viewBox="0 0 864 864" enable-background="new 0 0 864 864" xml:space="preserve"
    fill="green">

<g>
	<path d="M675.9546,477.9336c-2.3276-13.306-4.6392-26.8433-6.8743-39.935l-1.2775-7.4788
		c-4.2958-25.1368-8.5881-50.2741-12.878-75.4114l-23.9825-140.6496c-0.4979-2.918-1.0046-5.834-1.5333-8.8742l-0.6671-3.8448
		c-0.0641,0.0401-0.1252,0.0782-0.1849,0.1154c-0.3688,0.2304-0.6544,0.4079-0.9244,0.6065L616.9803,210.3
		c-10.3112,7.5903-20.6229,15.1802-30.959,22.7368c-1.1602,0.8486-1.5974,1.7021-1.6125,3.1493
		c-0.8168,76.4776-1.6747,152.791-2.4059,217.3556c-0.225,19.857-0.4603,39.7144-0.6956,59.5719l-0.4675,39.7144
		c-0.0064,0.5283,0.0161,1.0569,0.0421,1.6713c0.0039,0.0978,0.0083,0.1976,0.0122,0.3003c0.0225-0.0146,0.0445-0.0293,0.066-0.0435
		c0.3301-0.2172,0.5679-0.3732,0.7899-0.5488c4.3711-3.4545,8.7387-6.9144,13.1064-10.3733l56.9396-45.0985
		c7.6236-6.0409,15.2472-12.0818,22.8904-18.0982C675.7232,479.821,676.1776,479.2082,675.9546,477.9336z"/>
	<path d="M281.9218,554.1917c0.2147,0.1702,0.4861,0.3066,0.83,0.4793c0.021,0.0103,0.0421,0.021,0.0636,0.0318l0.0005-0.2617
		c0.0015-0.5424,0.0029-0.9949-0.0024-1.4473l-1.3392-117.5244c-0.3394-29.7451-0.6794-59.4902-1.0129-89.2353
		c-0.4377-38.9774-0.8286-74.127-1.1797-109.6015c-0.0181-1.8131-0.494-2.7972-1.8175-3.7612
		c-10.2021-7.4299-20.5344-15.0384-30.5262-22.3959l-10.7113-7.8843c-0.3199-0.2348-0.6588-0.4431-1.0345-0.6745
		c-0.0523-0.0323-0.1051-0.0646-0.1585-0.0978c-0.0108,0.0337-0.0215,0.0675-0.0323,0.1003
		c-0.1198,0.3688-0.2235,0.6872-0.2773,1.0027c-2.3741,13.797-4.7448,27.5945-7.0983,41.3945
		c-1.9975,11.713-3.9911,23.4259-5.9846,35.1394c-2.3105,13.5764-4.621,27.1534-6.9379,40.7293
		c-2.2728,13.3182-4.552,26.6354-6.8313,39.9521c-2.0224,11.8152-4.0444,23.6304-6.0619,35.446l-3.8443,22.5392
		c-3.3587,19.7044-6.7178,39.4083-10.1131,59.1058c-0.2944,1.707,0.0225,2.5751,1.3039,3.5739
		c8.7842,6.845,17.657,13.8777,26.2373,20.6792l30.4264,24.1092C257.8527,535.126,269.8856,544.661,281.9218,554.1917z"/>
	<path d="M229.5289,203.3626c0.0367-0.2137,0.0333-0.4348,0.0323-0.6544l-0.0005-0.0978l-0.4402,0.291
		c-0.5023,0.3297-1.0335,0.6784-1.55,1.0477c-6.2663,4.4826-12.5307,8.9681-18.7951,13.4537l-19.6237,14.0489
		c-14.7958,10.5924-29.5915,21.1844-44.4088,31.7465c-0.9303,0.6632-1.3881,1.412-1.5803,2.5844
		c-3.613,21.985-7.2436,43.9672-10.8737,65.9493l-12.744,77.1825c-0.7151,4.3804-1.4546,8.9094-2.2572,13.3519
		c-0.2661,1.4737,0.0836,2.2704,1.3357,3.0451c1.8581,1.1489,3.5655,2.4558,4.9908,3.5832
		c13.8953,10.9886,27.7828,21.987,41.6703,32.9859l15.7319,12.4584c0.4676,0.3702,0.9435,0.7302,1.5289,1.1729l0.4915,0.3727
		l3.0989-18.1622C200.6515,372.6465,215.0927,288.0052,229.5289,203.3626z"/>
	<path d="M746.3679,422.2877l-15.4658-93.6328c-3.4418-20.8053-6.8831-41.6107-10.2921-62.4214
		c-0.2436-1.4883-0.8393-2.4484-2.0557-3.3137c-10.4677-7.449-20.9124-14.9303-31.3567-22.412l-11.2161-8.032
		c-13.4869-9.6524-26.9753-19.3023-40.475-28.9366c-0.1247-0.089-0.2465-0.1912-0.3702-0.2954
		c-0.3399-0.2866-0.6432-0.5424-1.1029-0.5752l46.5995,273.1218l0.515-0.381c0.6168-0.4539,1.1386-0.8378,1.6463-1.2394
		c3.8561-3.0486,7.7087-6.1015,11.5613-9.1545c7.7366-6.1304,15.4737-12.2612,23.2367-18.3579
		c9.4103-7.3898,18.8347-14.6935,28.0117-21.7077C746.6237,424.1707,746.563,423.4664,746.3679,422.2877z"/>
	<path d="M636.2939,197.1065l-0.5703,0.2939l208.8761,149.3585c-0.0499-0.4886-0.1913-0.9244-0.3825-1.3861
		c-11.3711-27.5378-22.7427-55.0746-34.1485-82.5973c-0.3707-0.8941-0.9459-1.7392-1.5783-2.3193
		c-12.4642-11.4449-25.1691-23.0469-37.4557-34.2668l-0.2876-0.2626c-15.1323-13.8181-30.2694-27.6312-45.4066-41.4449
		l-7.8622-7.1663c-4.4357-4.0385-8.8718-8.077-13.2811-12.1448c-0.9278-0.8559-1.523-0.9503-2.3618-0.3771
		c-0.2871,0.1971-0.5992,0.3331-0.9005,0.4646c-0.1389,0.0602-0.2773,0.1203-0.4118,0.1868l-62.506,30.7835
		C637.4795,196.4932,636.9469,196.7685,636.2939,197.1065z"/>
	<path d="M18.9557,346.777l-0.0323,0.0939l209.0018-149.4455c-0.1668-0.0915-0.3243-0.178-0.4749-0.2612
		c-0.5854-0.3218-1.0623-0.5845-1.5504-0.8246l-10.8037-5.3219c-17.2329-8.4898-34.4659-16.9796-51.7126-25.442
		c-0.5732-0.2812-1.0266-0.5253-1.3974-0.7244c-0.5889-0.3169-0.9254-0.4979-1.2272-0.4979c-0.4025,0-0.7439,0.3208-1.5402,1.0692
		c-0.2607,0.245-0.5639,0.5297-0.9225,0.8564c-9.424,8.5862-18.8338,17.1889-28.2436,25.7912
		c-5.427,4.9619-10.8541,9.9234-16.2841,14.8819l-15.7676,14.3942c-14.2132,12.9734-28.4265,25.9468-42.6187,38.9422
		c-0.7381,0.6754-1.3949,1.6321-1.8508,2.693c-1.6038,3.7348-3.1757,7.558-4.6959,11.2561l-1.5172,3.6849
		c-9.2846,22.4766-18.5687,44.9537-27.8474,67.4323C19.279,345.8208,19.1176,346.2986,18.9557,346.777z"/>
	<path d="M486.6102,532.0872c-11.1984-9.916-22.8649-20.325-34.6752-30.9365c-1.2785-1.1494-2.4944-1.6365-4.0938-1.5984
		c-9.8524,0.0797-19.8041,0.0787-29.5783-0.0005c-0.021,0-0.0425-0.0005-0.0636-0.0005c-1.5671,0-2.7908,0.4686-4.0806,1.5587
		c-13.6219,11.5179-25.6709,21.6422-36.8351,30.9508c-1.188,0.9909-1.5157,1.8874-1.2511,3.4252
		c1.6737,9.7497,3.3244,19.6701,4.9213,29.2643l1.3308,7.9929c1.1137,6.6723,2.2234,13.3456,3.3332,20.0184
		c2.5732,15.4697,5.1463,30.939,7.763,46.4014c0.3972,2.3453,0.7679,4.6959,1.1386,7.047c1.144,7.249,2.3266,14.7449,4.2943,21.9547
		c0.1228,0.45,0.2495,0.8985,0.3761,1.3475l10.166-94.7959l0.2636-0.0792c0.2817-0.0847,0.5346-0.1639,0.7689-0.2377
		c0.4695-0.1472,0.8677-0.2714,1.2722-0.3693c1.9491-0.47,3.8986-0.9357,5.8487-1.4008c3.5254-0.8417,7.0514-1.684,10.5709-2.5511
		c2.4538-0.606,4.869-0.604,7.3844,0.0059c3.2917,0.7972,6.5872,1.5798,9.8828,2.3618c2.2582,0.5361,4.5164,1.0726,6.7736,1.6131
		c0.4079,0.0978,0.808,0.2303,1.2589,0.38c0.2167,0.0724,0.4456,0.1487,0.6935,0.2264l0.2592,0.0817l0.0289,0.27
		c0.5273,4.9169,1.0648,9.8295,1.6023,14.74c1.187,10.8453,2.4147,22.0599,3.4956,33.0974
		c1.8141,18.5291,4.2053,39.823,5.273,46.0126c0.1795-0.7454,0.3604-1.4824,0.5399-2.2136
		c0.6867-2.7977,1.3358-5.4403,1.8072-8.1426c1.4316-8.2061,2.8084-16.5643,4.1403-24.6472
		c0.604-3.6633,1.2076-7.3267,1.818-10.9886l1.3534-8.1196c4.4234-26.5322,8.8468-53.0645,13.306-79.5912
		C487.9254,533.8055,487.6412,532.9999,486.6102,532.0872z"/>
	<path d="M351.6827,460.595l-3.3391-3.0285c-9.7199-8.818-19.4403-17.6365-29.1685-26.4452
		c-2.8876-2.6147-2.9356-2.7385-2.5854-6.6376c0.3565-3.9642,0.6931-7.831,1.0295-11.6973
		c0.5292-6.0815,1.0765-12.3703,1.66-18.5526c0.1536-1.6287-0.2088-2.9013-1.2115-4.2556c-2.335-3.1552-4.7589-6.5598-7.629-10.7147
		c-0.8251-1.1964-1.5182-2.4607-2.0591-3.7573c-1.7485-4.1887-3.4819-8.3832-5.2158-12.5777
		c-2.1784-5.272-4.3569-10.544-6.5657-15.8038c-0.5952-1.4179-0.6221-2.6411-0.0905-4.0894
		c2.3188-6.3172,4.6073-12.6457,6.8963-18.9736c1.6204-4.4802,3.2408-8.9603,4.8714-13.4366
		c0.4348-1.1929,0.5185-2.2469,0.2715-3.4178c-0.3624-1.7202-0.6818-3.4496-1.0012-5.1791
		c-0.3702-2.0048-0.7527-4.0781-1.2002-6.0976c-1.3719-6.1964-2.1031-11.4386-1.212-16.8788
		c0.1883-1.1489-0.0631-2.1897-0.8398-3.4804c-3.2031-5.317-6.372-10.6555-9.5409-15.9936l-4.0307-6.7833
		c-1.5123-2.5419-3.0315-5.0793-4.5506-7.6172l-1.7784-2.9723c-0.022,0.3375-0.044,0.6754-0.0401,1.0129
		c1.1709,103.1048,2.3467,206.2139,3.5284,309.3186c0.0034,0.0015,0.0063,0.0029,0.0098,0.0044l3.8106-5.3972
		c20.1959-28.6064,40.4173-57.2472,60.601-85.8962l-0.1776-0.1922C351.9438,460.8567,351.8191,460.7192,351.6827,460.595z"/>
	<path d="M579.3749,242.0861l-0.2191,0.3502c-0.3316,0.5277-0.6627,1.055-0.9806,1.5906c-1.6097,2.7086-3.2061,5.4256-4.802,8.1425
		c-3.8077,6.482-7.7449,13.1842-11.8137,19.6564c-2.5565,4.0664-3.4125,7.6378-2.7761,11.5809
		c0.337,2.0855,0.0489,4.309-0.3126,6.4008c-0.8618,4.9927-1.8723,10.254-3.277,17.0588c-0.29,1.4052-0.1859,2.67,0.337,4.1001
		c1.884,5.1541,3.749,10.3146,5.6144,15.4756c2.0151,5.5757,4.0307,11.1515,6.0688,16.7184c0.5009,1.367,0.471,2.5267-0.0993,3.8786
		l-0.605,1.4336c-3.1494,7.4627-6.4063,15.1787-9.4524,22.8287c-2.0283,5.0925-4.2498,9.0772-6.9902,12.5386
		c-0.8912,1.1254-1.7305,2.3311-2.5419,3.4971c-0.6818,0.9802-1.3871,1.9936-2.1246,2.9625
		c-0.8354,1.0966-1.1353,2.1765-1.0027,3.611c0.6182,6.6782,1.1993,13.3598,1.7798,20.0419
		c0.3404,3.9157,0.6808,7.8315,1.0291,11.7467c0.1384,1.5598,0.1306,2.9601-1.3724,4.3031
		c-8.0853,7.2226-16.2488,14.6314-24.1434,21.7958l-6.4962,5.8932c-0.8901,0.807-1.7696,1.6263-2.7003,2.4934l-1.1303,1.0506
		c6.7051,9.5013,13.3994,18.9932,20.0903,28.4798c14.8041,20.9897,29.5857,41.9487,44.3956,62.8851L579.3749,242.0861z"/>
	<path d="M18,354.2455l94.4633,66.6482c8.437-51.0014,16.7864-101.4917,25.1569-152.2109
		C127.6421,275.2588,25.0435,348.6346,18,354.2455z"/>
	<polygon points="725.9963,268.3263 751.2158,420.8933 846,354.0206 726.0399,268.3033 	"/>
	<path d="M396.2084,298.1375c0.4612,10.5876,0.9836,21.3502,1.4888,31.7592l0.2783,5.7455
		c0.0191,0.3947,0.0724,0.7879,0.1311,1.2218c0.0156,0.1149,0.0313,0.2323,0.0469,0.3531
		c21.4333,1.0125,44.4108,1.6938,67.3828-0.0724c0.0127-0.0929,0.0264-0.1849,0.0396-0.2768
		c0.0592-0.405,0.1174-0.8002,0.1364-1.1978l0.2573-5.2935c0.5131-10.5567,1.0437-21.4725,1.5128-32.2112
		c0.0641-1.4536-0.0915-2.9273-0.4495-4.2615c-10.9265-40.7464-21.8921-81.4821-32.8573-122.2178l-0.828-3.075
		c-0.133-0.495-0.2959-0.9821-0.4612-1.4785l-0.1394-0.4245h-1.8395l-0.1697,0.5727c-0.1624,0.5453-0.3091,1.0374-0.4421,1.5323
		l-2.92,10.8448c-10.2491,38.0696-20.4987,76.1387-30.714,114.2176C396.3018,295.2166,396.1453,296.6907,396.2084,298.1375z"/>
	<path d="M448.9397,432.0311c-0.9503-0.9489-1.8468-1.3074-3.2061-1.324l-2.6049,0.0181
		c-6.7653,0.0484-13.7603,0.0983-20.6391-0.0939c-0.1379-0.0039-0.2739-0.0059-0.4084-0.0059c-2.8612,0-4.9433,0.8779-7.1042,2.9732
		c-12.8369,12.4471-26.0328,24.9514-38.7944,37.0439l-3.1376,2.9727c-1.0125,0.9596-1.3944,1.9065-1.3626,3.3777
		c0.1404,6.5002,0.2519,13.0008,0.3629,19.5019c0.0787,4.6054,0.1575,9.2102,0.247,13.8156
		c0.0298,1.5744,0.159,3.1254,0.3835,4.6098c0.495,3.2745,1.0594,6.5959,1.6057,9.8084l0.2597,1.5269
		c0.0518,0.3067,0.1506,0.6094,0.2758,0.9929c0.0108,0.0323,0.021,0.0655,0.0323,0.0988l0.2054-0.156
		c0.4064-0.3057,0.7645-0.5747,1.1073-0.8623l3.9558-3.3181c10.726-8.9974,21.4524-17.9944,32.1613-27.0125
		c1.3372-1.1269,2.5355-1.6028,4.0419-1.595c10.2711,0.0597,21.247,0.0616,33.5528,0.0074
		c1.4629-0.0225,2.6783,0.4554,3.8389,1.4976c7.8354,7.0357,15.6947,14.045,23.5541,21.0538l4.9663,4.4297
		c1.5358,1.37,3.0769,2.7336,4.7389,4.2043l1.9319,1.7104c0.0445-0.2196,0.0866-0.4284,0.1272-0.6285
		c0.156-0.7669,0.2861-1.4042,0.382-2.0464c0.2035-1.3602,0.4417-2.7189,0.6803-4.0781c0.536-3.0579,1.0907-6.2199,1.211-9.332
		c0.2778-7.2005,0.3884-14.5312,0.4955-21.6202c0.0636-4.2087,0.1272-8.4174,0.224-12.6252
		c0.0342-1.4697-0.3952-2.5076-1.4815-3.5831C477.3305,460.3211,463.7223,446.7911,448.9397,432.0311z"/>
	<path d="M389.1781,451.2141c0.5297-0.4749,1.0599-0.9503,1.5749-1.4414l5.0798-4.8382c6.078-5.7866,12.363-11.7702,18.4929-17.7069
		c1.2526-1.2134,2.5742-1.7084,4.4513-1.7094c9.7125,0.0797,19.2651,0.0934,28.3937,0.0421
		c1.771-0.0093,3.0036,0.5008,4.2033,1.7084c6.0785,6.1143,12.3053,12.2852,18.3271,18.2532l3.7969,3.7636
		c0.2885,0.2861,0.604,0.5449,1.03,0.8946c0.0289,0.024,0.0582,0.0479,0.088,0.0729l-8.8014-107.6974
		c-3.431,0.1135-6.8347,0.2509-10.2193,0.3874c-8.1337,0.3287-15.8214,0.6187-23.6768,0.6295
		c-7.9195-0.0093-15.996-0.3512-23.8065-0.6813c-3.3689-0.1428-6.7486-0.2856-10.1425-0.405l-9.2225,109.1158L389.1781,451.2141z"/>
	<path d="M460.4492,678.5341c-1.7593-15.9427-3.4893-32.1583-5.162-47.8403l-1.8151-16.9879
		c-0.312-2.9121-0.6275-5.8237-0.9591-8.8801l-0.4177-3.8575c-0.0689,0.0572-0.1355,0.1115-0.199,0.1638
		c-0.3981,0.3267-0.6931,0.5688-0.9689,0.8315c-1.0917,1.0379-2.198,2.0616-3.3044,3.0858
		c-2.6358,2.4387-5.3605,4.9609-7.8192,7.6339c-2.8265,3.0745-5.9435,4.2894-9.8118,3.8287
		c-1.4189-0.1697-2.5071-0.4769-3.5455-1.483c-3.6096-3.4965-7.3194-7.0122-10.9069-10.4119l-2.6715-2.5326
		c-0.3164-0.3008-0.6515-0.582-1.0486-0.9161l-0.1487-0.1262c-0.0044,0.02-0.0088,0.0401-0.0132,0.0601
		c-0.0871,0.3942-0.1575,0.7102-0.1927,1.0306c-0.1849,1.6801-0.3614,3.3616-0.5375,5.0426l-1.8116,16.9106
		c-2.0973,19.4995-4.1945,38.9994-6.2659,58.5018c-0.1037,0.9781-0.0298,2.0493,0.2133,3.0984
		c1.2144,5.2377,2.5017,10.5528,3.7465,15.6923l0.6168,2.5492c0.1076,0.4451,0.2499,0.8818,0.3957,1.3293
		c0.0396,0.1218,0.0792,0.2446,0.1188,0.3679h47.8311l0.1448-0.5048c0.1506-0.52,0.293-1.0105,0.4128-1.5065
		c0.361-1.5001,0.7057-3.004,1.0506-4.5085c0.7439-3.2466,1.5133-6.6038,2.4455-9.8613
		C460.7266,686.0941,460.9193,682.7912,460.4492,678.5341z"/>
	<polygon points="349.1736,262.7917 408.5528,222.9295 342.2469,186.877 314.7605,219.452 	"/>
	<polygon points="521.4327,186.8809 455.2046,222.997 514.5119,262.7897 548.926,219.4486 	"/>
	<path d="M584.396,227.8548c0.4108-0.2626,0.6906-0.4412,0.9572-0.6373l12.0774-8.8825c9.9615-7.3282,19.923-14.6564,29.8972-21.967
		c1.5084-1.1059,3.0016-2.0258,4.4366-2.735c14.7918-7.312,29.5949-14.6021,44.3975-21.8916l14.7297-7.2553
		c0.6447-0.3174,1.282-0.651,1.9193-0.9841l0.4285-0.223l-110.6966-4.9027l1.5818,69.6523
		C584.2214,227.9663,584.3114,227.909,584.396,227.8548z"/>
	<path d="M172.9498,164.5574l14.2984,7.0416c15.0892,7.4304,30.1785,14.8608,45.2638,22.3c0.832,0.4104,1.9124,0.9733,2.8876,1.6903
		c10.5127,7.7292,21.0166,15.4717,31.5201,23.2137l10.8027,7.9611c0.4358,0.3213,0.8794,0.6324,1.4434,1.0281l0.3898,0.2739
		l1.5818-69.6909l-110.7328,4.9052l0.5933,0.2988C171.6474,163.9079,172.2969,164.236,172.9498,164.5574z"/>
	<path d="M577.418,159.2487c-0.0107-0.0616-0.0215-0.1252-0.0328-0.1912L508.63,177.8139c0.3277,0.1091,0.6564,0.2142,0.9914,0.2905
		l2.6485,0.6079c2.7238,0.629,5.5405,1.279,8.3264,1.8175c1.8561,0.358,3.2447,1.1895,4.5037,2.6954
		c8.3934,10.0432,17.5875,20.957,28.1076,33.3649c1.0359,1.2218,1.5446,2.534,1.6492,4.2552
		c0.8613,14.2059,1.7881,28.6471,2.6847,42.6129l0.225,3.5024c0.021,0.3336,0.0865,0.6794,0.1702,1.1078
		c0.2177-0.3076,0.3893-0.5532,0.5424-0.8095l5.7919-9.735c4.7443-7.9753,9.488-15.951,14.2509-23.915
		c0.4999-0.8359,0.7097-1.729,0.6813-2.8955c-0.3414-14.1942-0.676-28.3884-1.0105-42.583l-0.6622-28.0064
		C577.5247,159.8654,577.4777,159.593,577.418,159.2487z"/>
	<path d="M285.1704,233.5171c6.5764,11.1461,13.3113,22.4507,19.8247,33.3831l0.2939,0.4935
		c0.1223,0.2044,0.2817,0.3991,0.494,0.6471c0.0103-0.0939,0.0201-0.1859,0.0298-0.2758c0.0773-0.7112,0.1423-1.3098,0.181-1.9104
		l0.1673-2.6157c0.9181-14.3434,1.8361-28.6867,2.7184-43.0325c0.0782-1.2702,0.4685-2.2572,1.2658-3.1997
		c11.2777-13.3422,20.4987-24.2858,29.0178-34.44c0.8491-1.0124,1.8297-1.5822,3.1791-1.8478
		c2.4171-0.4759,4.8651-1.0212,7.2328-1.548l0.5522-0.1233c1.3088-0.291,2.6138-0.5996,3.9182-0.9083l0.2059-0.0484
		c-24.6492-7.2084-49.1771-13.9227-67.9849-19.0162c-0.0073,0.0484-0.0147,0.0944-0.022,0.1379
		c-0.0406,0.2553-0.0704,0.4285-0.0743,0.6031l-0.0954,3.9734c-0.537,22.4399-1.0746,44.8798-1.5671,67.3202
		C284.4906,231.8717,284.7444,232.7947,285.1704,233.5171z"/>
	<path d="M379.3271,341.9589l12.2275-3.6472c0.3693-0.1105,0.7253-0.2651,1.1024-0.4289c0.0919-0.0401,0.1839-0.0802,0.2763-0.1194
		c0.001-0.2289,0.0039-0.451,0.0063-0.6671c0.0074-0.6109,0.0142-1.1787-0.0122-1.7446c-0.1648-3.501-0.3331-7.002-0.5018-10.5029
		c-0.4069-8.4678-0.828-17.2242-1.1919-25.8387c-0.0607-1.434-0.5356-2.2626-1.7534-3.0569
		c-7.3649-4.801-14.8246-9.7248-22.0388-14.4861l-16.5819-10.9246l-0.0592,0.2739c-0.0963,0.4353-0.1687,0.7596-0.2191,1.0873
		l-4.3931,28.6593c-2.0826,13.5637-4.1652,27.1275-6.2717,40.6877c-0.1589,1.0222,0.0489,1.6825,0.742,2.3546
		c2.3888,2.3183,4.3667,4.2928,6.2551,6.395c0.8838,0.9846,1.6541,1.1739,3.0598,0.7498
		C359.7499,347.7933,369.5387,344.8759,379.3271,341.9589z"/>
	<path d="M470.8769,337.8509c0.0841,0.0562,0.1629,0.1091,0.1922,0.1179l13.1333,3.928
		c10.0813,3.0148,20.1627,6.0296,30.2401,9.0567c0.7831,0.2348,1.2888,0.0963,1.8669-0.5131
		c2.4009-2.5257,4.4107-4.6235,6.596-6.7075c0.8031-0.765,1.0129-1.4879,0.8026-2.7615c-0.6808-4.1202-1.3148-8.3181-1.9276-12.3777
		l-1.6928-11.1187c-2.334-15.2858-4.668-30.5712-7.0146-45.8551c-0.0416-0.27-0.159-0.5503-0.2949-0.875
		c-0.0157-0.0372-0.0313-0.0744-0.047-0.112l-0.0684,0.0392c-0.2612,0.1467-0.4725,0.2651-0.674,0.3981l-9.5145,6.2766
		c-9.4949,6.2658-18.9898,12.5317-28.5052,18.7653c-1.0349,0.6779-1.4409,1.414-1.4981,2.716
		c-0.3869,8.7813-0.8041,17.5612-1.2213,26.341l-0.5062,10.702c-0.022,0.4637-0.0156,0.9293-0.0098,1.4086l0.0039,0.4788
		C470.7898,337.7927,470.8358,337.8235,470.8769,337.8509z"/>
	<path d="M493.4606,430.3647c2.1237-7.672,4.2831-15.3338,6.4419-22.996l2.6832-9.5296c0.5698-2.0293,1.146-4.0571,1.7221-6.0849
		c3.1288-11.0135,6.3642-22.4023,8.5544-33.8482c0.0939-0.4891,0.1629-0.9821,0.2363-1.502l0.0621-0.4329l-42.1898-12.5919
		c-0.001,0.046-0.0015,0.09-0.002,0.1321c-0.0054,0.3194-0.0098,0.5473,0.0088,0.7737c0.7728,9.511,1.549,19.0216,2.3301,28.5316
		l5.1204,62.2424c0.5302,6.3793,1.0604,12.7592,1.5504,19.1424c0.0924,1.2047,0.5199,2.0948,1.4286,2.9762
		c2.2019,2.1349,4.4044,4.3412,6.5339,6.4747c1.0956,1.0971,2.1907,2.1946,3.2906,3.2868c0.2196,0.2186,0.4671,0.4094,0.7924,0.6613
		c0.0093,0.0073,0.0191,0.0147,0.0284,0.0225l0.0206-0.3199c0.044-0.6466,0.0802-1.1866,0.0905-1.7265l0.1648-9.0312
		c0.1286-7.1575,0.2568-14.315,0.4245-21.472C492.789,433.5331,493.0336,431.9049,493.4606,430.3647z"/>
	<path d="M370.9278,435.2346c0.1702,7.2465,0.2993,14.4945,0.4289,21.742l0.1634,9.0034c0.0093,0.4876,0.0406,0.9753,0.0822,1.618
		l0.0205,0.338c0.8965-0.8535,1.7666-1.6864,2.6186-2.5017c2.5458-2.4357,4.9502-4.7365,7.4065-6.9633
		c1.1611-1.053,1.7167-2.2474,1.8566-3.9945c1.1753-14.6598,2.4147-29.3925,3.4721-41.8709
		c0.9616-11.3422,1.9285-22.684,2.8955-34.0262c0.9669-11.3417,1.9339-22.684,2.895-34.0262
		c0.0244-0.2847-0.0103-0.5865-0.0548-0.9679c-0.0064-0.0568-0.0127-0.1145-0.0196-0.1736l-42.0895,12.5386
		c-0.003,0.0871-0.0069,0.1697-0.0108,0.249c-0.0127,0.2798-0.023,0.5008,0.0171,0.6828c0.3878,1.7554,0.7571,3.5157,1.1259,5.2764
		c0.851,4.0634,1.7314,8.2653,2.8461,12.3229c3.1356,11.4161,6.4018,23.0028,9.5609,34.2076
		c2.0293,7.1986,4.0586,14.3972,6.0688,21.6011C370.6397,431.8266,370.8877,433.5365,370.9278,435.2346z"/>
	<path d="M452.0705,218.8191l62.7721-34.1935l-0.001-0.0098l-8.5568-1.9124c-21.9802-4.9135-43.9608-9.8265-65.9429-14.7346
		c-0.5082-0.1135-1.0262-0.1849-1.5436-0.2568l-0.3658-0.0518c-0.0284,0.0284-0.0435,0.0484-0.0651,0.0753l-0.0254,0.0318
		L452.0705,218.8191z"/>
	<path d="M425.4155,167.4983l-76.1862,17.0339c7.1198,4.3515,57.3988,31.589,62.5129,33.8452L425.4155,167.4983z"/>
	<path d="M399.614,263.4593c1.2712-4.7056,2.5424-9.4113,3.7949-14.1218c0.5728-2.1555,1.1592-4.308,1.7476-6.4688
		c1.2101-4.4435,2.4592-9.0293,3.6081-13.7129c-7.3135,4.4146-50.416,33.4999-54.9822,37.11l38.2667,25.3114L399.614,263.4593z"/>
	<path d="M510.2113,266.0579l-55.0468-36.9334c1.5343,7.5033,14.9048,57.0643,16.8084,62.2326L510.2113,266.0579z"/>
	<path d="M312.2128,246.7233c-0.8168,12.6902-1.6336,25.3804-2.421,38.0725c-0.067,1.0839,0.0181,2.269,0.2612,3.6218
		c0.7253,4.0488,1.5211,8.1563,2.291,12.1282l0.2841,1.4683c0.0783,0.4016,0.2,0.8046,0.3546,1.3152
		c0.0201,0.0656,0.0401,0.1335,0.0611,0.203l32.265-37.4206l-31.7074-39.9453l-0.0362,0.3414
		c-0.0494,0.4563-0.0993,0.9127-0.1301,1.37c-0.2255,3.3562-0.4422,6.7129-0.6579,10.0701L312.2128,246.7233z"/>
	<path d="M553.8278,283.9169c-0.8188-13.7153-1.7172-27.6571-2.5869-41.1402l-0.6388-9.9253
		c-0.1017-1.5822-0.2196-3.163-0.338-4.7438l-0.1516-1.9789l-31.6947,39.9223l32.2347,37.4186
		c0.0318-0.1184,0.0626-0.2314,0.0924-0.3404c0.1609-0.5918,0.2876-1.0545,0.3796-1.5235l0.5433-2.735
		c0.5737-2.8725,1.167-5.8428,1.6517-8.7769C553.6311,288.2078,553.9529,286.0195,553.8278,283.9169z"/>
	<path d="M354.3957,392.859c-0.0255-0.0651-0.0514-0.1326-0.0783-0.2025l-30.4714,35.8295l30.9233,28.0205
		c0.0152-0.0196,0.0298-0.0386,0.044-0.0572c0.1477-0.1917,0.2455-0.3189,0.3027-0.4431l3.2535-7.0509
		c2.3193-5.0309,4.6381-10.0618,6.9839-15.0799c0.3878-0.8305,0.2328-1.5553-0.0103-2.4167
		c-1.885-6.6865-3.7656-13.3739-5.6462-20.0619l-4.8959-17.3983C354.7019,393.646,354.5684,393.3036,354.3957,392.859z"/>
	<path d="M529.6735,416.5227l-2.1349-2.513c-2.7321-3.2168-5.4642-6.4341-8.2135-9.6363c-1.0862-1.2643-2.1574-2.5423-3.2314-3.8242
		c-2.1658-2.5839-4.4009-5.251-6.777-7.8188c-0.066,0.1286-0.112,0.2196-0.1394,0.3164l-3.1571,11.1828
		c-2.602,9.2205-5.204,18.441-7.8256,27.6562c-0.2465,0.8652-0.0518,1.5587,0.3419,2.3976
		c1.2462,2.6563,2.4763,5.3204,3.7064,7.9846l6.5872,14.2529l30.9987-28.0328l-3.2026-3.7744
		C534.2867,421.9556,531.9816,419.2382,529.6735,416.5227z"/>
	<path d="M353.4992,499.9827c-1.7373-1.8038-3.475-3.6071-5.2162-5.4065c-0.2025-0.2094-0.4544-0.3932-0.7454-0.6065
		c-0.0171-0.0122-0.0342-0.025-0.0513-0.0377c-0.0758,0.1985-0.1335,0.3517-0.1688,0.5101l-1.2946,5.7939
		c-3.3122,14.8246-6.7373,30.154-10.0618,45.2403c-0.2035,0.9229-0.1854,2.0214,0.0499,3.0148
		c1.7167,7.2582,3.5137,14.6271,5.252,21.7527l1.0853,4.4508c0.0714,0.2949,0.1663,0.5835,0.2871,0.9503
		c0.0059-0.0088,0.0117-0.0176,0.0176-0.0264c0.2632-0.3922,0.473-0.7033,0.6539-1.031l2.5502-4.6161
		c3.1415-5.6833,6.3896-11.5604,9.5252-17.3719c0.8217-1.5226,1.433-3.1371,1.7691-4.6685
		c1.299-5.922,2.5668-11.8509,3.8345-17.7803c1.1831-5.5347,2.3668-11.0698,3.5758-16.5986
		c0.2856-1.3064,0.0802-2.0816-0.7835-2.962C360.3314,507.0747,356.9151,503.5287,353.4992,499.9827z"/>
	<path d="M523.2874,566.6891c1.3827-5.7068,2.7649-11.4137,4.1862-17.1107c0.4417-1.7686,0.4681-3.3895,0.0826-5.1003
		c-2.602-11.5369-5.1727-23.0811-7.7434-34.6248l-3.0486-13.6806c-0.1326-0.5952-0.2925-1.1841-0.4656-1.8239l-0.1198-0.449
		c-0.1521,0.0939-0.2656,0.1673-0.3428,0.2475c-1.7172,1.7755-3.4321,3.5538-5.1463,5.3317
		c-3.7147,3.8536-7.4299,7.7068-11.1735,11.532c-0.7195,0.7346-0.6212,1.3998-0.4011,2.424l2.0239,9.4636
		c1.8258,8.5446,3.6516,17.0897,5.5078,25.6274c0.2495,1.1484,0.6857,2.3149,1.2614,3.3738
		c3.4609,6.3681,7.0215,12.8203,10.4648,19.0598l1.8483,3.3499c0.2045,0.3702,0.4348,0.7258,0.7415,1.2002
		c0.0313,0.049,0.0641,0.0993,0.0974,0.1507l0.0734-0.2622c0.1628-0.5766,0.2832-1.0036,0.3884-1.4345L523.2874,566.6891z"/>
	<path d="M344.6885,274.5115l-8.1396,9.4587c-7.134,8.2917-14.268,16.5839-21.4246,24.8566
		c-0.6515,0.7527-0.7987,1.4018-0.5439,2.3936c1.8009,7.0049,3.588,14.0132,5.3757,21.0215
		c1.2081,4.7365,2.4157,9.4724,3.6277,14.2079c0.0861,0.335,0.2338,0.6691,0.405,1.056c0.0323,0.0739,0.0655,0.1492,0.0993,0.2264
		c0.8344-0.4651,1.6537-0.9259,2.4636-1.3817c2.3271-1.3083,4.5251-2.5448,6.7917-3.7216c1.0927-0.5664,1.5837-1.2907,1.751-2.5834
		c0.2964-2.2826,0.6559-4.5931,1.0036-6.8273l2.4132-15.7177c2.157-14.0592,4.3139-28.1179,6.461-42.1785
		c0.0494-0.3243,0.0396-0.675,0.0249-1.1157C344.8783,274.3124,344.778,274.4073,344.6885,274.5115z"/>
	<path d="M524.3698,280.7725l-5.5709-6.4708c0.002,0.765,0.0073,1.4903,0.1154,2.2058c1.3362,8.8444,2.6915,17.6859,4.0468,26.5273
		l2.1741,14.1991c1.1758,7.6887,2.3511,15.3768,3.4877,23.0714c0.1634,1.1063,0.5963,1.7289,1.5441,2.22
		c1.5602,0.8085,3.1131,1.6855,4.6151,2.534c0.7904,0.4466,1.5813,0.8936,2.376,1.3323c0.629,0.3473,1.2673,0.6774,1.9354,1.0227
		l0.5795,0.3008c0.0142-0.0313,0.0284-0.0616,0.0416-0.0915c0.0988-0.2152,0.1721-0.3683,0.2137-0.5307l2.8329-11.0879
		c2.1325-8.3519,4.265-16.7033,6.4175-25.0503c0.2314-0.8965-0.0646-1.4663-0.6534-2.1481
		C540.4655,299.4693,532.4174,290.1206,524.3698,280.7725z"/>
	<path d="M419.7512,601.5986c3.1342,2.9904,6.2678,5.9812,9.4137,8.9594c1.1245,1.0657,4.1769,1.1097,5.2681,0.0787
		c3.2775-3.0975,6.5383-6.2125,9.7996-9.3276c2.1051-2.0112,4.2107-4.0223,6.3206-6.0286c0.604-0.5747,0.8114-1.0501,0.74-1.6953
		c-0.4133-3.7416-0.806-7.4852-1.1968-11.2097l-0.358-3.4047c-0.0714-0.0357-0.1384-0.0699-0.202-0.1027
		c-0.2005-0.1037-0.359-0.1849-0.5023-0.2191l-3.6702-0.8848c-3.9451-0.9552-8.0251-1.9422-12.0587-2.8011
		c-1.0721-0.2274-2.3761-0.1794-3.9847,0.1517c-2.291,0.4715-4.6039,1.0505-6.8405,1.6111
		c-0.9044,0.2264-1.8087,0.4529-2.714,0.6735l-5.8061,1.4184l-0.3913,3.7294c-0.3893,3.723-0.7664,7.3321-1.1841,10.9362
		c-0.0954,0.8266,0.2309,1.3162,0.8271,1.8821C415.3943,597.4408,417.5728,599.5195,419.7512,601.5986z"/>
	<path d="M352.2261,384.7762c-0.8804-2.6465-1.6781-5.4652-2.3716-8.3778c-0.2685-1.1279-0.765-1.5412-2.0425-1.7016
		c-2.7986-0.3502-5.6325-0.7752-8.3734-1.1866c-1.3103-0.1966-2.6206-0.3927-3.9319-0.5825
		c-0.7292-0.1051-1.4609-0.1898-2.1946-0.2749l-0.7361-0.0866c-0.0279,0.046-0.0553,0.0905-0.0817,0.1335
		c-0.1144,0.1873-0.2108,0.3414-0.2793,0.5077l-1.0887,2.6333c-2.1154,5.1145-4.2307,10.229-6.3079,15.3592
		c-0.2983,0.7366-0.4074,1.5827-0.4813,2.3878c-0.6133,6.6928-1.2017,13.3876-1.7808,20.0834
		c-0.1942,2.2415-0.3707,4.4851-0.5468,6.7281l-0.2064,2.6084l16.0043-18.8118c4.4743-5.2661,9.1007-10.7113,13.6987-16.0273
		C352.4794,387.0432,352.6746,386.1236,352.2261,384.7762z"/>
	<path d="M541.7993,422.8037c0-0.0024,0-0.0054,0-0.0078c0.0088-0.4911,0.0156-0.8613-0.0157-1.2286l-0.1937-2.2631
		c-0.7351-8.5999-1.4957-17.4932-2.2919-26.2349c-0.0846-0.9278-0.4343-1.8899-0.7992-2.7913
		c-1.8062-4.4611-3.6423-8.9104-5.4789-13.3588l-0.9303-2.2542c-0.2156-0.5229-0.449-1.0388-0.6979-1.5896l-0.2514-0.56
		l-3.1058,0.4485c-4.4166,0.6368-8.7764,1.2663-13.1377,1.8918c-0.5767,0.0827-0.7356,0.4363-0.9386,1.168l-0.4309,1.5558
		c-0.6989,2.5296-1.4223,5.1454-2.2102,7.6975c-0.3076,0.9968-0.1408,1.6957,0.6138,2.579
		c6.82,7.9772,13.6229,15.9686,20.4263,23.9601l8.7794,10.3107C541.322,422.3444,541.5283,422.544,541.7993,422.8037z"/>
	<path d="M346.913,485.7519l20.2018,20.9672c0.0294-0.0685,0.0528-0.1286,0.0538-0.1521c-0.3644-20.7305-0.739-41.4615-1.12-62.193
		L346.913,485.7519z"/>
	<polygon points="497.5622,444.2248 496.4671,506.7812 496.5008,506.7959 516.7745,485.7494 	"/>
	<path d="M316.6455,594.6319l22.1455-13.1906l-6.3593-26.2031C326.3096,570.3906,321.2846,582.9312,316.6455,594.6319z"/>
	<path d="M531.6001,556.0981c-0.0865-0.2162-0.2137-0.4285-0.384-0.6994l-6.3162,26.0118l21.8701,13.1402
		c-0.024-0.3776-0.0591-0.7317-0.1795-1.0335C541.6174,581.0354,536.6119,568.5653,531.6001,556.0981z"/>
	<path d="M524.65,349.7414c0.0333-0.0015,0.0665-0.002,0.1003-0.002c3.4218,0,5.54,4.8915,5.54,9.423
		c0,1.6214-0.2744,3.0251-0.7933,4.0586c-0.6163,1.2276-1.5514,1.8767-2.7047,1.8767c-3.4218,0-5.54-4.8915-5.54-9.423
		c0-1.1915,0.1482-2.2655,0.4329-3.1616c-0.9342,0.8814-1.8552,1.7588-2.7703,2.6475c-0.3785,0.3673-0.5502,1.1357-0.6759,1.6967
		c-0.8237,3.6849-1.6058,7.3785-2.3883,11.0722l-0.0792,0.3742c-0.0695,0.3282-0.1027,0.6637-0.1355,0.9875
		c-0.0049,0.0479-0.0098,0.0959-0.0146,0.1428c0.0557,0.0244,0.0992,0.0464,0.1389,0.0558
		c1.4844-0.2157,3.0197-0.4363,4.5554-0.6569c3.2031-0.4603,6.5148-0.9362,9.7806-1.3524c0.9537-0.1218,1.2751-0.6573,1.6566-1.4609
		c1.1113-2.3403,2.2347-4.6753,3.3582-7.0098c0.8408-1.7471,1.682-3.4941,2.5174-5.2437c0.1096-0.2304,0.1819-0.4945,0.2651-0.7997
		c0.0171-0.0631,0.0347-0.1272,0.0528-0.1922l-10.3356-5.7885l-2.1262,1.9794C525.2042,349.2259,524.9263,349.4842,524.65,349.7414z
		"/>
	<path d="M339.2628,349.7414c-0.0333-0.0015-0.0665-0.002-0.1003-0.002c-3.4217,0-5.54,4.8915-5.54,9.423
		c0,1.6214,0.2744,3.0251,0.7933,4.0586c0.6163,1.2276,1.5514,1.8767,2.7047,1.8767c3.4218,0,5.54-4.8915,5.54-9.423
		c0-1.1915-0.1482-2.2655-0.4328-3.1616c0.9342,0.8814,1.8551,1.7588,2.7703,2.6475c0.3785,0.3673,0.5502,1.1357,0.6759,1.6967
		c0.8236,3.6849,1.6057,7.3785,2.3883,11.0722l0.0792,0.3742c0.0695,0.3282,0.1027,0.6637,0.1355,0.9875
		c0.0049,0.0479,0.0098,0.0959,0.0147,0.1428c-0.0558,0.0244-0.0993,0.0464-0.1389,0.0558
		c-1.4844-0.2157-3.0197-0.4363-4.5555-0.6569c-3.2031-0.4603-6.5148-0.9362-9.7805-1.3524
		c-0.9537-0.1218-1.2751-0.6573-1.6566-1.4609c-1.1112-2.3403-2.2347-4.6753-3.3582-7.0098
		c-0.8408-1.7471-1.682-3.4941-2.5174-5.2437c-0.1096-0.2304-0.1819-0.4945-0.2651-0.7997
		c-0.0171-0.0631-0.0347-0.1272-0.0528-0.1922l10.3357-5.7885l2.1261,1.9794C338.7086,349.2259,338.9864,349.4842,339.2628,349.7414
		z"/>
	<path d="M549.3452,363.6045c0.7679,1.7578,1.5358,3.5161,2.308,5.2725c0.1287,0.2925,0.2891,0.5713,0.5062,0.9528
		c0.0083,0.0147,0.0171,0.0298,0.0259,0.045l9.7316-23.5311c-2.5654-1.9256-12.1003-7.2964-14.6241-8.2575l-0.6984,2.9336
		c-0.6926,2.9214-1.4086,5.9421-2.1706,8.9001c-0.2896,1.1254-0.2133,2.0513,0.2558,3.0965
		C546.2574,356.5355,547.8015,360.0698,549.3452,363.6045z"/>
	<path d="M316.1593,337.8245l-14.4656,8.343l9.8133,23.739c0.0411-0.0318,0.0724-0.0568,0.0939-0.0817l1.1738-2.6729
		c2.1476-4.8685,4.3682-9.9028,6.4913-14.8789c0.1956-0.4583,0.2045-1.1831,0.024-1.9892
		c-0.8266-3.6912-1.7393-7.4294-2.6221-11.0444l-0.0264-0.1071c-0.0836-0.3434-0.2255-0.6862-0.3898-1.0838
		C316.2214,337.9756,316.1906,337.9008,316.1593,337.8245z"/>
	<path d="M543.8902,383.6791c1.7358-2.4362,3.3743-4.736,5.0402-7.0152c0.3859-0.5273,0.2446-0.9073-0.0606-1.5881l-0.0773-0.1741
		c-2.3781-5.4359-4.7575-10.8712-7.1551-16.2983c-0.0812-0.1839-0.223-0.3629-0.4196-0.607
		c-0.4265,0.8897-0.8437,1.7661-1.256,2.6319c-1.2824,2.692-2.4929,5.2343-3.787,7.7684c-0.5013,0.9807-0.5077,1.8077-0.0225,2.9503
		c1.2609,2.9673,2.4822,5.9518,3.7034,8.9363c0.583,1.4247,1.166,2.849,1.7535,4.2713c0.1467,0.3561,0.3154,0.7019,0.538,1.1572
		c0.0377,0.0782,0.0773,0.1594,0.1189,0.244L543.8902,383.6791z"/>
	<path d="M318.2527,381.5706c0.8334,1.1636,1.6664,2.3267,2.5052,3.4863c0.1805,0.2494,0.4065,0.4871,0.6451,0.739
		c0.0181,0.0186,0.0357,0.0377,0.0538,0.0562c0.0773-0.0959,0.133-0.1692,0.1575-0.2284c0.6994-1.6894,1.3954-3.3802,2.0919-5.071
		c1.3514-3.2834,2.7032-6.5662,4.0776-9.8397c0.2744-0.653,0.2494-1.1939-0.0861-1.8664c-0.652-1.3073-1.2809-2.627-1.9095-3.946
		l-0.9361-1.9569c-0.5737-1.1905-1.1504-2.379-1.7975-3.7123l-0.672-1.3861l-1.725,3.951
		c-2.0474,4.6909-3.9872,9.1364-5.9553,13.5691c-0.2983,0.672-0.1272,1.1049,0.3174,1.7158
		C316.1055,378.5719,317.1791,380.0715,318.2527,381.5706z"/>
	<path d="M314.8554,332.6577c-0.5977-4.1138-2.8363-11.9932-3.9583-14.5468l-7.651,21.2123L314.8554,332.6577z"/>
	<polygon points="548.6755,332.5765 560.4443,339.3236 552.6045,317.6501 	"/>
</g>
</svg>
