<svg width="32" height="32" viewBox="0 0 32 32" fill="none" xmlns="http://www.w3.org/2000/svg">
<path fill-rule="evenodd" clip-rule="evenodd" d="M13.5195 3.41669C13.5883 3.34684 13.6586 3.27932 13.7303 3.21436C9.87826 3.95176 6.68031 6.53085 5.08808 10H10.6902C10.9503 8.59402 11.3178 7.31674 11.7722 6.22627C12.2472 5.08624 12.8319 4.11469 13.5195 3.41669ZM10.3174 13H4.16592C4.0568 13.6504 4 14.3186 4 15C4 20.8515 8.18815 25.7247 13.7303 26.7857C13.6586 26.7207 13.5883 26.6532 13.5195 26.5833C12.8319 25.8853 12.2472 24.9138 11.7722 23.7737C10.8208 21.4904 10.25 18.388 10.25 15C10.25 14.3204 10.273 13.6523 10.3174 13ZM11.821 13H20.179C20.2256 13.6484 20.25 14.3166 20.25 15C20.25 18.2394 19.7015 21.137 18.8432 23.1968C18.4134 24.2284 17.9207 25.0142 17.4119 25.5307C16.9057 26.0445 16.4291 26.25 16 26.25C15.5709 26.25 15.0943 26.0445 14.5881 25.5307C14.0793 25.0142 13.5866 24.2284 13.1568 23.1968C12.2985 21.137 11.75 18.2394 11.75 15C11.75 14.3166 11.7744 13.6484 11.821 13ZM19.7826 10H12.2174C12.4555 8.79811 12.7756 7.71803 13.1568 6.80319C13.5866 5.77165 14.0793 4.98584 14.5881 4.46937C15.0943 3.95554 15.5709 3.75001 16 3.75001C16.4291 3.75001 16.9057 3.95554 17.4119 4.46937C17.9207 4.98584 18.4134 5.77165 18.8432 6.80319C19.2244 7.71803 19.5445 8.79811 19.7826 10ZM21.6826 13C21.727 13.6523 21.75 14.3204 21.75 15C21.75 18.388 21.1792 21.4904 20.2278 23.7737C19.7528 24.9138 19.1681 25.8853 18.4805 26.5833C18.4117 26.6532 18.3414 26.7207 18.2697 26.7857C23.8119 25.7247 28 20.8515 28 15C28 14.3186 27.9432 13.6504 27.8341 13H21.6826ZM26.9119 10H21.3098C21.0497 8.59402 20.6822 7.31674 20.2278 6.22627C19.7528 5.08624 19.1681 4.11469 18.4805 3.41669C18.4117 3.34684 18.3414 3.27932 18.2697 3.21436C22.1217 3.95176 25.3197 6.53085 26.9119 10Z" fill="#1A1A1A"/>
<path d="M29 11H3V20H29V11Z" fill="#8382FA"/>
<path d="M10.2209 15.5073L9.66182 13.2359C9.66182 13.2048 9.5997 13.1737 9.56865 13.1737H8.45053C8.41947 13.1737 8.35735 13.2048 8.35735 13.2359L7.70512 15.6006C7.67406 15.6939 7.54982 15.6939 7.51876 15.6006L7.02182 13.2359C7.02182 13.2048 6.9597 13.1426 6.92865 13.1426H5.74841C5.68629 13.1426 5.62418 13.2048 5.65523 13.267L6.83547 17.7786C6.83547 17.8097 6.89759 17.8408 6.92865 17.8408H8.13994C8.171 17.8408 8.23312 17.8097 8.23312 17.7786L8.85429 15.4761C8.88535 15.3828 9.00959 15.3828 9.04065 15.4761L9.63076 17.7786C9.63076 17.8097 9.69288 17.8408 9.72394 17.8408H10.9042C10.9352 17.8408 10.9974 17.8097 10.9974 17.7786L12.1776 13.267C12.2086 13.2048 12.1465 13.1426 12.0844 13.1426H10.9974C10.9352 13.1426 10.9042 13.1737 10.9042 13.2359L10.4383 15.5073C10.4072 15.6006 10.2519 15.6006 10.2209 15.5073ZM17.0538 15.5073L16.4948 13.2359C16.4948 13.2048 16.4326 13.1737 16.4016 13.1737H15.2835C15.2524 13.1737 15.1903 13.2048 15.1903 13.2359L14.5381 15.6006C14.507 15.6939 14.3828 15.6939 14.3517 15.6006L13.8548 13.267C13.8548 13.2359 13.7926 13.1737 13.7616 13.1737H12.5814C12.5192 13.1737 12.4571 13.2359 12.4882 13.2981L13.6684 17.8097C13.6684 17.8408 13.7305 17.8719 13.7616 17.8719H14.9729C15.0039 17.8719 15.0661 17.8408 15.0661 17.8097L15.6872 15.5073C15.7183 15.4139 15.8425 15.4139 15.8736 15.5073L16.4637 17.8097C16.4637 17.8408 16.5258 17.8719 16.5569 17.8719H17.7371C17.7682 17.8719 17.8303 17.8408 17.8303 17.8097L19.0105 13.2981C19.0416 13.2359 18.9795 13.1737 18.9174 13.1737H17.8303C17.7992 13.1737 17.7371 13.2048 17.7371 13.267L17.2712 15.5384C17.2091 15.6006 17.0538 15.6006 17.0538 15.5073ZM24.5079 13.2359L24.0421 15.5073C24.011 15.6006 23.8868 15.6006 23.8557 15.5073L23.2966 13.2359C23.2966 13.2048 23.2345 13.1737 23.2035 13.1737H22.0854C22.0543 13.1737 21.9922 13.2048 21.9922 13.2359L21.3089 15.5695C21.2778 15.6628 21.1536 15.6628 21.1225 15.5695L20.6256 13.2359C20.6256 13.2048 20.5635 13.1426 20.5324 13.1426H19.3522C19.2901 13.1426 19.2279 13.2048 19.259 13.267L20.4392 17.7786C20.4392 17.8097 20.5014 17.8408 20.5324 17.8408H21.7437C21.7748 17.8408 21.8369 17.8097 21.8369 17.7786L22.4581 15.4761C22.4891 15.3828 22.6134 15.3828 22.6444 15.4761L23.2345 17.7786C23.2345 17.8097 23.2966 17.8408 23.3277 17.8408H24.5079C24.539 17.8408 24.6011 17.8097 24.6011 17.7786L25.7814 13.267C25.8124 13.2048 25.7503 13.1426 25.6882 13.1426H24.6011C24.539 13.1426 24.5079 13.1737 24.5079 13.2359Z" fill="white"/>
</svg>
