<svg width="32" height="32" viewBox="0 0 32 32" fill="none" xmlns="http://www.w3.org/2000/svg">
<g clip-path="url(#clip0_1689_24819)">
<path fill-rule="evenodd" clip-rule="evenodd" d="M19.675 10.8667C19.675 11.45 19.6167 12.0333 19.5 12.5583L17.575 12.7333C17.4 13.2583 17.225 13.7833 16.9333 14.25L18.1583 15.7667C17.575 16.7583 16.7 17.575 15.7667 18.2167L14.25 16.9917C13.7833 17.2833 13.2583 17.4583 12.7333 17.6333L12.7333 17.6333L12.5583 19.5583C12.0333 19.675 11.45 19.7333 10.8667 19.7333H10.75C10.225 19.7333 9.7 19.675 9.175 19.5583L9 17.6333L8.99999 17.6333C8.47499 17.4583 7.95 17.2833 7.48333 16.9917L5.96667 18.2167C4.975 17.575 4.15833 16.7 3.51667 15.7667L4.8 14.25C4.625 13.9583 4.50833 13.725 4.39167 13.4333C4.3625 13.3167 4.31875 13.2 4.275 13.0833C4.23125 12.9667 4.1875 12.85 4.15833 12.7333L2.175 12.5583C2.05833 12.0333 2 11.45 2 10.8667C2 10.2833 2.05833 9.7 2.175 9.11667L4.15833 8.94167C4.33333 8.41667 4.50833 7.89167 4.8 7.425L3.51667 5.90833C3.80833 5.44167 4.15833 5.03333 4.56667 4.625C4.975 4.21667 5.44167 3.80833 5.90833 3.51667L7.425 4.74167C7.89167 4.50833 8.41667 4.275 9 4.1L9.175 2.175C9.7 2.05833 10.2833 2 10.8667 2C11.45 2 12.0333 2.05833 12.5583 2.175L12.7333 4.1C13.2583 4.275 13.7833 4.45 14.25 4.74167L15.7667 3.45833C16.2917 3.80833 16.7583 4.21667 17.1667 4.625C17.5167 5.03333 17.8667 5.5 18.1583 5.96667L16.9333 7.48333C17.225 7.95 17.4 8.475 17.575 9L19.5 9.175C19.6167 9.7 19.675 10.2833 19.675 10.8667ZM10.8667 14.3084C12.7917 14.3084 14.3084 12.7917 14.3084 10.8667C14.3084 8.9417 12.7917 7.42503 10.8667 7.42503C8.94169 7.42503 7.42503 8.9417 7.42503 10.8667C7.42503 12.7917 8.94169 14.3084 10.8667 14.3084Z" fill="#1A1A1A"/>
<path fill-rule="evenodd" clip-rule="evenodd" d="M29.9029 24.3224C29.8964 24.367 29.8899 24.4122 29.8833 24.4582L28.5416 24.5748C28.425 24.9248 28.25 25.2748 28.075 25.6248L28.075 25.6248L28.95 26.6165C28.4833 27.3165 27.9 27.8415 27.2583 28.3082L26.2083 27.4332C25.8583 27.6665 25.5083 27.7832 25.1583 27.8998L25.0417 29.2415C24.6917 29.2998 24.2833 29.3582 23.875 29.3582H23.7583C23.35 29.3582 23 29.2998 22.65 29.2415L22.65 29.2415L22.5333 27.8998C22.1833 27.7832 21.8333 27.6082 21.4833 27.4332L21.4833 27.4332L20.4333 28.3082C19.7917 27.8415 19.2083 27.2582 18.7417 26.6165L19.6167 25.5665C19.5 25.3915 19.3833 25.1582 19.325 24.9832C19.2667 24.8665 19.2083 24.6915 19.15 24.5165L19.15 24.5165L17.8083 24.3998C17.75 24.0498 17.6917 23.6415 17.6917 23.2332C17.6917 22.8708 17.7376 22.5543 17.7887 22.2023C17.7952 22.1577 17.8018 22.1125 17.8083 22.0665L19.15 21.9498C19.2666 21.5998 19.4416 21.2498 19.6166 20.8999L19.6167 20.8998L18.7417 19.8498C18.975 19.4998 19.2083 19.2082 19.5 18.9165L19.5 18.9165C19.7917 18.6248 20.0833 18.3332 20.55 18.2165L21.6 19.0915C21.95 18.8582 22.3 18.7415 22.65 18.6248L22.65 18.6248L22.7666 17.2832C23.1166 17.2248 23.525 17.1665 23.9333 17.1665C24.2957 17.1665 24.6121 17.2124 24.9642 17.2636C25.0088 17.27 25.054 17.2766 25.1 17.2832L25.2167 18.6248C25.5666 18.7415 25.9166 18.9165 26.2666 19.0915L27.3167 18.2165C27.6666 18.4498 27.9583 18.7415 28.25 19.0332L28.25 19.0332C28.4055 19.1887 28.5611 19.3961 28.7167 19.6035C28.7944 19.7072 28.8722 19.811 28.95 19.9082L28.075 20.9582C28.3083 21.3082 28.425 21.6582 28.5416 22.0082L29.8833 22.1248C29.9416 22.4748 30 22.8832 30 23.2915C30 23.6539 29.954 23.9703 29.9029 24.3224ZM24.1666 21.5999C24.8666 21.7749 25.3916 22.2999 25.5083 22.9416C25.6833 24.1082 24.6916 25.0999 23.525 24.9249C22.825 24.7499 22.3 24.2249 22.1833 23.5832C21.95 22.4166 23 21.3666 24.1666 21.5999Z" fill="#8382FA"/>
<path d="M8.9416 27.3165C8.9416 27.2582 8.9416 27.1998 8.88327 27.1998C8.88327 27.1998 8.88327 27.1998 8.88327 27.1415L8.82493 27.0832L6.78327 25.5665C6.6666 25.4498 6.4916 25.5082 6.37493 25.6248C6.25827 25.7415 6.3166 25.9748 6.43327 26.0332L7.7166 27.0248H5.6166C4.79993 27.0248 4.09993 26.3248 4.09993 25.5082V20.0832C4.09993 19.9082 3.98327 19.7915 3.80827 19.7915C3.63327 19.7915 3.5166 19.9082 3.5166 20.0832V25.5082C3.5166 26.6748 4.44993 27.6082 5.6166 27.6082H7.7166L6.43327 28.5998C6.3166 28.7165 6.25827 28.8915 6.37493 29.0082C6.43327 29.0665 6.54993 29.1248 6.60827 29.1248C6.6666 29.1248 6.72493 29.1248 6.78327 29.0665L8.82493 27.5498L8.88327 27.4915C8.88327 27.4915 8.88327 27.4915 8.88327 27.4332C8.9416 27.4332 8.9416 27.3748 8.9416 27.3165Z" fill="#1A1A1A" stroke="#1A1A1A" stroke-width="0.4"/>
<path d="M26.3834 6.31685H24.2834L25.5667 5.32518C25.6834 5.20851 25.7417 5.03352 25.625 4.91685C25.5084 4.80018 25.3334 4.74185 25.2167 4.85852L23.175 6.37518L23.1167 6.43352C23.1167 6.43352 23.1167 6.43352 23.1167 6.49185C23.1167 6.55018 23.0583 6.55018 23.0583 6.60852C23.0583 6.66685 23.0584 6.72518 23.1167 6.72518C23.1167 6.72518 23.1167 6.72518 23.1167 6.78352L23.175 6.84185L25.2167 8.35852C25.275 8.41685 25.3333 8.41685 25.3917 8.41685C25.5083 8.41685 25.5667 8.35852 25.625 8.30018C25.7417 8.18352 25.6834 7.95018 25.5667 7.89185L24.2834 6.95852H26.3834C27.2 6.95852 27.9 7.65852 27.9 8.47518V13.9002C27.9 14.0752 28.0167 14.1918 28.1917 14.1918C28.3667 14.1918 28.4834 14.0752 28.4834 13.9002V8.47518C28.4834 7.25018 27.55 6.31685 26.3834 6.31685Z" fill="#8382FA" stroke="#8382FA" stroke-width="0.4"/>
</g>
<defs>
<clipPath id="clip0_1689_24819">
<rect width="32" height="32" fill="white"/>
</clipPath>
</defs>
</svg>
