<svg width="32" height="32" viewBox="0 0 32 32" fill="none" xmlns="http://www.w3.org/2000/svg">
<path d="M7 6C12.0381 6.00331 16.8689 8.00615 20.4314 11.5686C23.9938 15.1311 25.9967 19.9619 26 25" stroke="#8382FA" stroke-width="4" stroke-linecap="square" stroke-linejoin="round"/>
<path d="M7 15C8.31322 15 9.61358 15.2587 10.8268 15.7612C12.0401 16.2638 13.1425 17.0003 14.0711 17.9289C14.9997 18.8575 15.7362 19.9599 16.2388 21.1732C16.7413 22.3864 17 23.6868 17 25" stroke="#1A1A1A" stroke-width="4" stroke-linecap="square" stroke-linejoin="round"/>
<path d="M8 26C9.10457 26 10 25.1046 10 24C10 22.8954 9.10457 22 8 22C6.89543 22 6 22.8954 6 24C6 25.1046 6.89543 26 8 26Z" fill="#1A1A1A"/>
</svg>
