<svg width="28" height="28" viewBox="0 0 28 28" fill="none" xmlns="http://www.w3.org/2000/svg">
<path d="M17.4351 4.375C18.9192 4.77332 20.2725 5.55499 21.3591 6.64159C22.4457 7.72818 23.2274 9.08147 23.6257 10.5656" stroke="#8382FA" stroke-width="1.5" stroke-linecap="square" stroke-linejoin="round"/>
<path d="M16.5259 7.75488C17.4185 7.99195 18.2326 8.46077 18.8857 9.11384C19.5387 9.7669 20.0076 10.581 20.2446 11.4736" stroke="#8382FA" stroke-width="1.5" stroke-linecap="square" stroke-linejoin="round"/>
<path d="M23.9883 17.8123L18.7702 17.2954L16.2654 19.7883C14.3879 19.1679 12.6821 18.1154 11.2855 16.7156C9.88499 15.3187 8.8322 13.6123 8.212 11.734L10.7044 9.23008L10.1874 4.01242L4.44618 4L4.44894 4.01035C3.13477 9.53652 4.74573 15.2304 8.75796 19.2423C12.7709 23.255 18.4658 24.8658 23.9924 23.5504L24 23.5524L23.9883 17.8123Z" fill="#1A1A1A"/>
</svg>
