<svg width="32" height="32" viewBox="0 0 32 32" fill="none" xmlns="http://www.w3.org/2000/svg">
<path fill-rule="evenodd" clip-rule="evenodd" d="M27.1627 23.3084C26.9395 23.3084 26.7678 23.1367 26.7678 22.9135V21.7114C26.7678 21.4882 26.9395 21.2993 27.1627 21.2993C27.386 21.2993 27.5577 21.4882 27.5577 21.7114V22.9135C27.5577 23.1367 27.386 23.3084 27.1627 23.3084ZM19.6757 23.3084C19.4525 23.3084 19.2808 23.1367 19.2808 22.9135V21.7114C19.2808 21.4882 19.4525 21.2993 19.6757 21.2993C19.899 21.2993 20.0707 21.4882 20.0707 21.7114V22.9135C20.0707 23.1367 19.899 23.3084 19.6757 23.3084ZM27.1627 27.5671C26.9395 27.5671 26.7678 27.3954 26.7678 27.1722V25.9701C26.7678 25.7469 26.9395 25.5752 27.1627 25.5752C27.386 25.5752 27.5577 25.7469 27.5577 25.9701V27.1722C27.5577 27.3954 27.386 27.5671 27.1627 27.5671ZM19.6757 27.5671C19.4525 27.5671 19.2808 27.3954 19.2808 27.1722V25.9701C19.2808 25.7469 19.4525 25.5752 19.6757 25.5752C19.899 25.5752 20.0707 25.7469 20.0707 25.9701V27.1722C20.0707 27.3954 19.899 27.5671 19.6757 27.5671Z" fill="#8382FA"/>
<path fill-rule="evenodd" clip-rule="evenodd" d="M18.2331 22.1063H28.605C28.8282 22.1063 29 21.9346 29 21.7113V18.6547C29 18.4315 28.8282 18.2598 28.605 18.2598H18.2331C18.0099 18.2598 17.8381 18.4315 17.8381 18.6547V21.7113C17.8381 21.9346 18.0099 22.1063 18.2331 22.1063ZM18.2331 26.365H28.605C28.8282 26.365 29 26.1933 29 25.97V22.9134C29 22.6902 28.8282 22.5184 28.605 22.5184H18.2331C18.0099 22.5184 17.8381 22.6902 17.8381 22.9134V25.97C17.8381 26.1933 18.0099 26.365 18.2331 26.365ZM18.2331 30.6236H28.605C28.8282 30.6236 29 30.4519 29 30.2287V27.1721C29 26.9488 28.8282 26.7771 28.605 26.7771H18.2331C18.0099 26.7771 17.8381 26.9488 17.8381 27.1721V30.2287C17.8381 30.4519 18.0099 30.6236 18.2331 30.6236ZM19.521 20.5778H21.7018C21.925 20.5778 22.1139 20.4061 22.1139 20.1828C22.1139 19.9596 21.925 19.7879 21.7018 19.7879H19.521C19.2977 19.7879 19.1088 19.9596 19.1088 20.1828C19.1088 20.4061 19.2977 20.5778 19.521 20.5778ZM19.521 24.8365H21.7018C21.925 24.8365 22.1139 24.6647 22.1139 24.4415C22.1139 24.2183 21.925 24.0466 21.7018 24.0466H19.521C19.2977 24.0466 19.1088 24.2183 19.1088 24.4415C19.1088 24.6647 19.2977 24.8365 19.521 24.8365ZM19.521 29.0951H21.7018C21.925 29.0951 22.1139 28.9234 22.1139 28.7002C22.1139 28.4769 21.925 28.3052 21.7018 28.3052H19.521C19.2977 28.3052 19.1088 28.4769 19.1088 28.7002C19.1088 28.9234 19.2977 29.0951 19.521 29.0951Z" fill="#8382FA"/>
<path fill-rule="evenodd" clip-rule="evenodd" d="M13.3391 23.3084C13.1158 23.3084 12.927 23.1367 12.927 22.9135V21.7114C12.927 21.4882 13.1158 21.2993 13.3391 21.2993C13.5623 21.2993 13.734 21.4882 13.734 21.7114V22.9135C13.734 23.1367 13.5623 23.3084 13.3391 23.3084ZM5.85207 23.3084C5.62883 23.3084 5.43994 23.1367 5.43994 22.9135V21.7114C5.43994 21.4882 5.62883 21.2993 5.85207 21.2993C6.07531 21.2993 6.24703 21.4882 6.24703 21.7114V22.9135C6.24703 23.1367 6.07531 23.3084 5.85207 23.3084ZM13.3391 27.5671C13.1158 27.5671 12.927 27.3954 12.927 27.1722V25.9701C12.927 25.7469 13.1158 25.5752 13.3391 25.5752C13.5623 25.5752 13.734 25.7469 13.734 25.9701V27.1722C13.734 27.3954 13.5623 27.5671 13.3391 27.5671ZM5.85207 27.5671C5.62883 27.5671 5.43994 27.3954 5.43994 27.1722V25.9701C5.43994 25.7469 5.62883 25.5752 5.85207 25.5752C6.07531 25.5752 6.24703 25.7469 6.24703 25.9701V27.1722C6.24703 27.3954 6.07531 27.5671 5.85207 27.5671Z" fill="#8382FA"/>
<path fill-rule="evenodd" clip-rule="evenodd" d="M4.40969 22.1063H14.7816C15.0048 22.1063 15.1766 21.9346 15.1766 21.7113V18.6547C15.1766 18.4315 15.0048 18.2598 14.7816 18.2598H4.40969C4.18645 18.2598 3.99756 18.4315 3.99756 18.6547V21.7113C3.99756 21.9346 4.18645 22.1063 4.40969 22.1063ZM4.40969 26.365H14.7816C15.0048 26.365 15.1766 26.1933 15.1766 25.97V22.9134C15.1766 22.6902 15.0048 22.5184 14.7816 22.5184H4.40969C4.18645 22.5184 3.99756 22.6902 3.99756 22.9134V25.97C3.99756 26.1933 4.18645 26.365 4.40969 26.365ZM4.40969 30.6236H14.7816C15.0048 30.6236 15.1766 30.4519 15.1766 30.2287V27.1721C15.1766 26.9488 15.0048 26.7771 14.7816 26.7771H4.40969C4.18645 26.7771 3.99756 26.9488 3.99756 27.1721V30.2287C3.99756 30.4519 4.18645 30.6236 4.40969 30.6236ZM5.68047 20.5778H7.8785C8.10173 20.5778 8.27345 20.4061 8.27345 20.1828C8.27345 19.9596 8.10173 19.7879 7.8785 19.7879H5.68047C5.45724 19.7879 5.28552 19.9596 5.28552 20.1828C5.28552 20.4061 5.45724 20.5778 5.68047 20.5778ZM5.68047 24.8365H7.8785C8.10173 24.8365 8.27345 24.6647 8.27345 24.4415C8.27345 24.2183 8.10173 24.0466 7.8785 24.0466H5.68047C5.45724 24.0466 5.28552 24.2183 5.28552 24.4415C5.28552 24.6647 5.45724 24.8365 5.68047 24.8365ZM5.68047 29.0951H7.8785C8.10173 29.0951 8.27345 28.9234 8.27345 28.7002C8.27345 28.4769 8.10173 28.3052 7.8785 28.3052H5.68047C5.45724 28.3052 5.28552 28.4769 5.28552 28.7002C5.28552 28.9234 5.45724 29.0951 5.68047 29.0951Z" fill="#1A1A1A"/>
<path fill-rule="evenodd" clip-rule="evenodd" d="M16.2585 15.7868C16.0352 15.7868 15.8635 15.5979 15.8635 15.3918V13.314C15.8635 13.0907 16.0352 12.9019 16.2585 12.9019C16.4817 12.9019 16.6534 13.0907 16.6534 13.314V15.3918C16.6534 15.5979 16.4817 15.7868 16.2585 15.7868Z" fill="#8382FA"/>
<path fill-rule="evenodd" clip-rule="evenodd" d="M23.2131 17.3154C22.9898 17.3154 22.8009 17.1437 22.8009 16.9204V15.7871H9.95626V16.9204C9.95626 17.1437 9.76736 17.3154 9.5613 17.3154C9.33806 17.3154 9.14917 17.1437 9.14917 16.9204V15.3921C9.14917 15.1689 9.33806 14.98 9.5613 14.98H23.2131C23.4191 14.98 23.608 15.1689 23.608 15.3921V16.9204C23.608 17.1437 23.4191 17.3154 23.2131 17.3154Z" fill="#8382FA"/>
<path fill-rule="evenodd" clip-rule="evenodd" d="M20.1222 6.39389C19.899 6.39389 19.7272 6.22217 19.7272 5.99894V4.79689C19.7272 4.57366 19.899 4.38477 20.1222 4.38477C20.3454 4.38477 20.5172 4.57366 20.5172 4.79689V5.99894C20.5172 6.22217 20.3454 6.39389 20.1222 6.39389ZM12.6352 6.39389C12.412 6.39389 12.2402 6.22217 12.2402 5.99894V4.79689C12.2402 4.57366 12.412 4.38477 12.6352 4.38477C12.8584 4.38477 13.0301 4.57366 13.0301 4.79689V5.99894C13.0301 6.22217 12.8584 6.39389 12.6352 6.39389ZM20.1222 10.6526C19.899 10.6526 19.7272 10.4808 19.7272 10.2576V9.05556C19.7272 8.83233 19.899 8.64343 20.1222 8.64343C20.3454 8.64343 20.5172 8.83233 20.5172 9.05556V10.2576C20.5172 10.4808 20.3454 10.6526 20.1222 10.6526ZM12.6352 10.6526C12.412 10.6526 12.2402 10.4808 12.2402 10.2576V9.05556C12.2402 8.83233 12.412 8.64343 12.6352 8.64343C12.8584 8.64343 13.0301 8.83233 13.0301 9.05556V10.2576C13.0301 10.4808 12.8584 10.6526 12.6352 10.6526Z" fill="#8382FA"/>
<path fill-rule="evenodd" clip-rule="evenodd" d="M11.1926 5.19175H21.5645C21.7877 5.19175 21.9594 5.02003 21.9594 4.7968V1.74017C21.9594 1.51694 21.7877 1.34521 21.5645 1.34521H11.1926C10.9693 1.34521 10.7976 1.51694 10.7976 1.74017V4.7968C10.7976 5.02003 10.9693 5.19175 11.1926 5.19175ZM11.1926 9.45042H21.5645C21.7877 9.45042 21.9594 9.2787 21.9594 9.05546V5.99884C21.9594 5.7756 21.7877 5.60388 21.5645 5.60388H11.1926C10.9693 5.60388 10.7976 5.7756 10.7976 5.99884V9.05546C10.7976 9.2787 10.9693 9.45042 11.1926 9.45042ZM11.1926 13.7091H21.5645C21.7877 13.7091 21.9594 13.5374 21.9594 13.3141V10.2575C21.9594 10.0343 21.7877 9.86255 21.5645 9.86255H11.1926C10.9693 9.86255 10.7976 10.0343 10.7976 10.2575V13.3141C10.7976 13.5374 10.9693 13.7091 11.1926 13.7091ZM12.4805 3.6635H14.6613C14.8846 3.6635 15.0735 3.49177 15.0735 3.26854C15.0735 3.0453 14.8846 2.85641 14.6613 2.85641H12.4805C12.2572 2.85641 12.0684 3.0453 12.0684 3.26854C12.0684 3.49177 12.2572 3.6635 12.4805 3.6635ZM12.4805 7.92216H14.6613C14.8846 7.92216 15.0735 7.75044 15.0735 7.52721C15.0735 7.30397 14.8846 7.11508 14.6613 7.11508H12.4805C12.2572 7.11508 12.0684 7.30397 12.0684 7.52721C12.0684 7.75044 12.2572 7.92216 12.4805 7.92216ZM12.4805 12.1808H14.6613C14.8846 12.1808 15.0735 12.0091 15.0735 11.7859C15.0735 11.5626 14.8846 11.3909 14.6613 11.3909H12.4805C12.2572 11.3909 12.0684 11.5626 12.0684 11.7859C12.0684 12.0091 12.2572 12.1808 12.4805 12.1808Z" fill="#1A1A1A"/>
</svg>
